<svg width="24" height="24" viewBox="0 0 24 24" fill="none" xmlns="http://www.w3.org/2000/svg"><path d="M19.6283 6.17733C19.8315 5.9808 19.8315 5.65498 19.6283 5.45845L18.4672 4.33572C18.2735 4.14845 17.9663 4.14828 17.7724 4.33534L12 9.90491L6.22755 4.33534C6.03369 4.14828 5.72648 4.14845 5.53281 4.33572L4.37172 5.45845C4.16848 5.65498 4.16848 5.9808 4.37172 6.17733L12 13.5536L19.6283 6.17733Z" fill="#747474"/><path d="M4.37172 17.8227C4.16848 18.0192 4.16848 18.345 4.37172 18.5416L5.53281 19.6643C5.72648 19.8515 6.03369 19.8517 6.22755 19.6647L12 14.0951L17.7724 19.6647C17.9663 19.8517 18.2735 19.8515 18.4672 19.6643L19.6283 18.5416C19.8315 18.345 19.8315 18.0192 19.6283 17.8227L12 10.4464L4.37172 17.8227Z" fill="#747474"/></svg>